<svg xmlns="http://www.w3.org/2000/svg" viewBox="0 0 64 64" role="img" aria-labelledby="title">
  <title id="title">Fusion 360 icon</title>
  <rect width="64" height="64" rx="12" fill="#FFFFFF"/>
  <path d="M16 16h31c4.4 0 8 3.6 8 8v21H22V16Z" fill="#FF6A00"/>
  <path d="M16 16 22 12h25c6.6 0 12 5.4 12 12v25H55V24c0-4.4-3.6-8-8-8H22v33l-6 5V16Z" fill="#FF9142"/>
  <path d="M22 49h37v3H22v-3Z" fill="#9E4400"/>
  <path d="M33 25h16v7H41v5h8v7h-8v11h-8V25Z" fill="#FFFFFF"/>
  <text x="29" y="60" fill="#FFFFFF" font-family="Inter, Arial, sans-serif" font-size="14" font-weight="800">360</text>
</svg>
