<svg xmlns="http://www.w3.org/2000/svg" viewBox="0 0 64 64" role="img" aria-labelledby="title">
  <title id="title">SolidWorks / Dassault Systemes icon</title>
  <rect width="64" height="64" rx="12" fill="#E73535"/>
  <path d="M21 17c7-2 14-2 20 0 4 1.4 5 3.3 2.6 4.4-2.5 1.2-8.1.8-14.2-.3-5.1-.9-10.4-1.2-14.4.6-3.2 1.4-2.1 3.7 2.8 4.6 4.1.8 9.8.5 16.4-.6" fill="none" stroke="#FFFFFF" stroke-width="5.6" stroke-linecap="round"/>
  <path d="M18 29c-5.5 2.2-8.4 6.2-10.7 12.1-1 2.6-.1 4.2 2.2 3.1 6.5-3 9.9-9.4 13.6-14.3 2.4-3.1 5.1-4.6 8.6-4.3" fill="none" stroke="#FFFFFF" stroke-width="5.6" stroke-linecap="round"/>
  <path d="M34.5 30c-4.1 2.6-6.1 6.7-4.4 10.3 2.2 4.7 10.1 4.7 17 2.1 5.9-2.2 9.3-5.5 7.7-8.1-1.5-2.3-6.8-2.6-12.5-1.4" fill="none" stroke="#FFFFFF" stroke-width="5.6" stroke-linecap="round"/>
</svg>
